<?xml version="1.0" encoding="UTF-8"?>
<svg xmlns="http://www.w3.org/2000/svg" xmlns:xlink="http://www.w3.org/1999/xlink" viewBox="0 0 96 96" width="96px" height="96px">
<g id="surface3692563">
<path style=" stroke:none;fill-rule:nonzero;fill:rgb(0%,0%,0%);fill-opacity:1;" d="M 20 24 L 26 74 L 9.960938 57.960938 C 7.585938 55.585938 6.945312 51.96875 8.371094 48.921875 Z M 20 24 "/>
<path style=" stroke:none;fill-rule:nonzero;fill:rgb(80.000001%,80.000001%,80.000001%);fill-opacity:1;" d="M 54.636719 12.636719 C 52.949219 10.949219 50.65625 10 48.269531 10 C 46.78125 10 45.3125 10.371094 44 11.074219 L 20 24 L 20 64.6875 C 20 66.808594 20.84375 68.84375 22.34375 70.34375 L 26 74 L 70 74 L 70 64 L 84 42 Z M 54.636719 12.636719 "/>
<path style=" stroke:none;fill-rule:nonzero;fill:rgb(0%,0%,0%);fill-opacity:1;" d="M 20 24 L 62.6875 24 C 64.808594 24 66.84375 24.84375 68.34375 26.34375 L 84 42 L 84 74 L 70 74 Z M 20 24 "/>
<path style=" stroke:none;fill-rule:nonzero;fill:rgb(40.000001%,40.000001%,40.000001%);fill-opacity:1;" d="M 70 74 L 26 74 L 38 86 L 70 86 Z M 70 74 "/>
</g>
</svg>
