<svg fill="#000000" xmlns="http://www.w3.org/2000/svg"  viewBox="0 0 16 16" width="64px" height="64px"><path d="M 2 1 L 2 2 C 2.6388889 2 3.1224996 2.2045309 3.4589844 2.5410156 C 3.7954691 2.8775004 4 3.3611111 4 4 L 4 11 C 4 11.638889 3.7954691 12.1225 3.4589844 12.458984 C 3.1224996 12.795469 2.6388889 13 2 13 L 2 14 L 9 14 L 9.5 14 L 12.5 14 A 0.50005 0.50005 0 0 0 12.974609 13.658203 L 13.960938 10.695312 L 13.974609 10.658203 L 13.5 10.5 L 13.039062 10.304688 C 12.813432 10.839358 12.584349 11.505553 12.097656 12.037109 C 11.610963 12.568666 10.888889 13 9.5 13 L 9 13 C 8.3611111 13 7.8775004 12.795469 7.5410156 12.458984 C 7.2045309 12.1225 7 11.638889 7 11 L 7 8 L 8.5 8 C 9.1666667 8 10 8.7222222 10 10 L 11 10 L 11 5 L 10 5 C 10 6.2777778 9.1666667 7 8.5 7 L 7 7 L 7 4 C 7 3.3611111 7.2045309 2.8775004 7.5410156 2.5410156 C 7.8775004 2.2045309 8.3611111 2 9 2 L 9.5 2 C 10.833333 2 11.362363 2.5919132 11.677734 3.2226562 C 11.993106 3.8533993 12 4.5 12 4.5 L 13 4.5 L 13 1.5 A 0.50005 0.50005 0 0 0 12.5 1 L 2 1 z M 4.2988281 2 L 6.7011719 2 C 6.2542294 2.5258161 6 3.2190429 6 4 L 6 11 C 6 11.780957 6.2542294 12.474183 6.7011719 13 L 4.2988281 13 C 4.7457706 12.474183 5 11.780957 5 11 L 5 4 C 5 3.2190429 4.7457706 2.5258161 4.2988281 2 z M 10 7.2675781 L 10 7.7324219 C 9.8633831 7.6045365 9.6814366 7.591895 9.5253906 7.5 C 9.6814366 7.408105 9.8633831 7.3954635 10 7.2675781 z"/></svg>