<?xml version="1.0" encoding="UTF-8"?>
<svg xmlns="http://www.w3.org/2000/svg" xmlns:xlink="http://www.w3.org/1999/xlink" width="225pt" height="225pt" viewBox="0 0 225 225" version="1.1">
<g id="surface1">
<path style=" stroke:none;fill-rule:nonzero;fill:rgb(0%,0%,0%);fill-opacity:1;" d="M 132.199219 50.800781 C 128.101562 55.699219 120 67.800781 120 69 C 120 69.398438 124.601562 70 130.300781 70.300781 C 147.398438 71.199219 164.398438 77.300781 181.199219 88.601562 C 185.601562 91.5 189.699219 94 190.300781 94 C 190.800781 94 193.898438 92.398438 197.101562 90.5 L 202.898438 86.898438 L 201.101562 81.699219 C 197.300781 70.601562 188 55 181.800781 49.300781 L 179.398438 47 L 158.601562 59 L 152.898438 55 C 149.699219 52.699219 144.601562 49.800781 141.601562 48.5 L 136.101562 46.101562 Z M 132.199219 50.800781 "/>
<path style=" stroke:none;fill-rule:nonzero;fill:rgb(0%,0%,0%);fill-opacity:1;" d="M 41.601562 51.101562 C 34.101562 59.398438 26 73.699219 22.898438 84.300781 C 22.199219 86.898438 22.5 87.199219 32.300781 93 L 42.5 99 L 42.5 111.5 C 42.5 121.101562 42.800781 124.300781 43.898438 124.898438 C 45.601562 126 61 128 67.398438 128 L 72.101562 128 L 68.601562 121.699219 C 60.199219 106.5 56.601562 89.5 57.199219 67.699219 L 57.5 53.800781 L 51.398438 50.398438 L 45.300781 47 Z M 41.601562 51.101562 "/>
<path style=" stroke:none;fill-rule:nonzero;fill:rgb(0%,0%,0%);fill-opacity:1;" d="M 106.699219 95.5 C 94.601562 99.800781 90.5 114.300781 98.601562 124 C 102.300781 128.300781 106.398438 130.101562 112.5 130.101562 C 123.199219 130.101562 130.300781 123.101562 130.300781 112.5 C 130.300781 104.101562 125.199219 97.199219 117.199219 95 C 112.5 93.699219 111.398438 93.800781 106.699219 95.5 Z M 106.699219 95.5 "/>
<path style=" stroke:none;fill-rule:nonzero;fill:rgb(0%,0%,0%);fill-opacity:1;" d="M 142 146.199219 C 133.898438 160.398438 114.300781 177.101562 96.5 185.101562 L 88.898438 188.5 L 89.5 203.5 L 95 204.699219 C 102.101562 206.101562 122.898438 206.101562 130 204.699219 L 135.5 203.5 L 136.101562 178.898438 L 140.5 177 C 144.101562 175.5 153.101562 170.101562 157.300781 166.898438 C 158.699219 165.800781 150.898438 147 146.800781 141.800781 C 145.601562 140.300781 145.101562 140.699219 142 146.199219 Z M 142 146.199219 "/>
</g>
</svg>
